<?xml version="1.0" encoding="UTF-8"?>
<svg xmlns="http://www.w3.org/2000/svg" height="1000" width="887.207"><path d="M8.052 753.56q-17.324 -65.88 0 -131.76t66.612 -115.168l131.272 -130.784q49.288 -49.288 114.924 -66.612t131.516 0 115.168 66.612q20.496 20.496 20.496 49.532t-20.496 49.532 -49.532 20.496 -49.532 -20.496q-34.16 -34.16 -81.984 -34.16t-81.008 34.16l-131.272 131.272q-33.184 34.16 -33.184 81.74t33.184 81.74q34.16 33.184 81.496 33.184t81.496 -33.184l26.84 -27.328q77.592 37.576 163.968 35.136l-91.256 91.256q-49.288 49.288 -115.168 66.612t-131.76 0 -115.168 -66.612 -66.612 -115.168zm290.604 -179.34q0 -29.036 20.984 -49.532 20.496 -20.496 49.532 -20.496t49.532 20.496q33.184 34.16 81.008 34.16t81.984 -34.16l131.272 -131.272q34.16 -34.16 34.16 -81.74t-34.16 -80.764q-33.184 -34.16 -81.008 -34.16t-81.984 34.16l-27.328 26.352q-77.104 -36.6 -163.48 -35.136l91.256 -91.256q49.288 -48.8 115.168 -66.124t131.76 0 114.68 66.124q49.288 49.288 66.612 115.168t0 131.76 -66.612 115.168l-131.272 130.784q-49.288 49.288 -115.168 66.856t-131.516 0 -114.436 -66.856q-20.984 -20.496 -20.984 -49.532z" fill="#000000"/></svg>
